<?xml version="1.0" encoding="utf-8"?>
<!-- Generator: Adobe Illustrator 15.0.2, SVG Export Plug-In . SVG Version: 6.00 Build 0)  -->
<!DOCTYPE svg PUBLIC "-//W3C//DTD SVG 1.1//EN" "http://www.w3.org/Graphics/SVG/1.1/DTD/svg11.dtd">
<svg version="1.1" id="Calque_1" xmlns="http://www.w3.org/2000/svg" xmlns:xlink="http://www.w3.org/1999/xlink" x="0px" y="0px"
	 width="36px" height="324px" viewBox="0 0 36 324" enable-background="new 0 0 36 324" xml:space="preserve">
<g>
	<g>
		<path fill="#607D8B" d="M33.795,11.238L32.67,7.826l-3.006,0.595c-0.354-0.496-0.754-0.935-1.196-1.32l0.896-2.831l-3.207-1.607
			l-1.699,2.52c-0.67-0.111-1.354-0.138-2.039-0.084l-1.422-2.542l-3.375,1.223l0.66,2.896c-0.454,0.335-0.861,0.711-1.218,1.115
			l-2.719-0.855l-1.606,3.203l2.414,1.635c-0.116,0.637-0.152,1.283-0.115,1.937L12.562,15l1.127,3.407l2.844-0.558
			c0.382,0.55,0.814,1.036,1.313,1.452l-0.838,2.658l3.202,1.606l1.627-2.417c0.634,0.101,1.271,0.129,1.921,0.08l1.303,2.513
			l3.403-1.126l-0.565-2.935c0.508-0.369,0.971-0.791,1.365-1.25l2.754,0.865l1.614-3.204l-2.526-1.699
			c0.096-0.589,0.113-1.192,0.084-1.796L33.795,11.238z M25.843,17.365c-2.338,1.472-5.437,0.765-6.902-1.58
			c-1.473-2.354-0.764-5.447,1.578-6.922c2.35-1.47,5.44-0.759,6.912,1.592C28.904,12.798,28.195,15.891,25.843,17.365"/>
	</g>
	<g>
		<path fill="#2196F3" d="M16.351,27.724l-0.157-2.387l-2.048-0.124c-0.139-0.377-0.327-0.722-0.541-1.047l1.045-1.675l-1.801-1.576
			l-1.51,1.345c-0.42-0.192-0.854-0.322-1.31-0.401L9.542,19.98l-2.385,0.229l-0.055,1.979c-0.353,0.138-0.68,0.313-0.979,0.513
			l-1.608-1L2.94,23.491l1.289,1.461c-0.178,0.388-0.318,0.8-0.397,1.228l-1.812,0.422l0.156,2.39l1.93,0.11
			c0.154,0.422,0.354,0.808,0.595,1.161l-0.978,1.574l1.801,1.575l1.453-1.291c0.389,0.172,0.795,0.299,1.221,0.375l0.426,1.835
			l2.389-0.158l0.114-1.983c0.396-0.154,0.761-0.351,1.089-0.581l1.642,1.02l1.573-1.801l-1.344-1.512
			c0.156-0.371,0.277-0.754,0.352-1.151L16.351,27.724z M10.199,30.346c-1.765,0.558-3.646-0.414-4.2-2.171
			c-0.55-1.767,0.422-3.645,2.18-4.203c1.756-0.557,3.635,0.424,4.19,2.181C12.927,27.91,11.957,29.788,10.199,30.346"/>
	</g>
	<g>
		<path fill="#2196F3" d="M16.341,62.47l-0.572-2.323l-2.031,0.235c-0.207-0.344-0.448-0.659-0.719-0.939l0.738-1.833L11.71,56.37
			l-1.257,1.588c-0.44-0.111-0.896-0.167-1.354-0.167l-0.81-1.767l-2.308,0.639l0.287,1.959C5.95,58.824,5.66,59.049,5.4,59.297
			l-1.763-0.709l-1.24,2.044l1.521,1.21c-0.107,0.417-0.168,0.849-0.175,1.282l-1.715,0.727l0.573,2.326l1.918-0.223
			c0.227,0.386,0.488,0.729,0.793,1.037l-0.697,1.72l2.047,1.24l1.211-1.523c0.415,0.099,0.836,0.154,1.268,0.155l0.735,1.737
			l2.323-0.572l-0.225-1.976c0.355-0.222,0.687-0.477,0.97-0.759l1.789,0.72l1.239-2.045l-1.588-1.263
			c0.092-0.388,0.144-0.787,0.145-1.188L16.341,62.47z M10.735,66.125c-1.635,0.854-3.656,0.221-4.508-1.417
			c-0.855-1.64-0.223-3.655,1.414-4.513c1.636-0.852,3.656-0.217,4.508,1.421C13.003,63.252,12.371,65.269,10.735,66.125"/>
	</g>
	<g>
		<path fill="#2196F3" d="M16.112,97.237l-0.969-2.186l-1.957,0.583c-0.266-0.305-0.559-0.57-0.873-0.801l0.41-1.934l-2.231-0.865
			l-0.96,1.782c-0.456-0.033-0.912-0.009-1.364,0.07L7.065,92.29l-2.161,1.026l0.624,1.883c-0.281,0.251-0.527,0.523-0.739,0.814
			l-1.856-0.392l-0.866,2.229l1.708,0.925c-0.034,0.433-0.02,0.866,0.051,1.295l-1.563,1.014l0.965,2.191l1.853-0.553
			c0.288,0.338,0.604,0.635,0.959,0.883l-0.387,1.814l2.229,0.866l0.928-1.709c0.426,0.024,0.852,0.005,1.274-0.068l1.027,1.583
			l2.188-0.967l-0.563-1.904c0.313-0.282,0.592-0.59,0.823-0.917l1.886,0.398l0.866-2.229l-1.783-0.967
			c0.021-0.398,0.004-0.801-0.063-1.196L16.112,97.237z M11.228,101.81c-1.461,1.128-3.563,0.855-4.687-0.612
			c-1.127-1.464-0.854-3.56,0.608-4.688c1.464-1.123,3.563-0.85,4.686,0.615C12.961,98.588,12.69,100.684,11.228,101.81"/>
	</g>
	<g>
		<path fill="#2196F3" d="M15.675,132.063l-1.332-1.984l-1.83,0.914c-0.313-0.251-0.646-0.464-0.996-0.636l0.067-1.976l-2.347-0.465
			l-0.639,1.921c-0.453,0.048-0.897,0.151-1.33,0.308l-1.363-1.383l-1.951,1.389l0.941,1.743c-0.231,0.299-0.43,0.609-0.586,0.932
			l-1.897-0.063l-0.466,2.344l1.842,0.618c0.041,0.429,0.133,0.854,0.275,1.264l-1.362,1.271l1.332,1.989l1.728-0.866
			c0.344,0.285,0.707,0.521,1.098,0.705l-0.065,1.854l2.347,0.467l0.617-1.849c0.424-0.048,0.838-0.142,1.244-0.288l1.285,1.383
			l1.986-1.335l-0.885-1.776c0.258-0.33,0.481-0.684,0.65-1.044l1.928,0.064l0.463-2.348l-1.922-0.644
			c-0.048-0.396-0.136-0.786-0.271-1.165L15.675,132.063z M11.658,137.415c-1.244,1.361-3.36,1.458-4.722,0.211
			c-1.363-1.247-1.459-3.357-0.213-4.724c1.246-1.361,3.359-1.454,4.721-0.209S12.902,136.052,11.658,137.415"/>
	</g>
	<g>
		<path fill="#2196F3" d="M15.037,166.983l-1.655-1.724l-1.643,1.219c-0.354-0.194-0.719-0.347-1.092-0.454l-0.277-1.955
			l-2.393-0.051l-0.293,2.003c-0.439,0.124-0.859,0.305-1.258,0.533l-1.582-1.123l-1.68,1.704l1.227,1.555
			c-0.176,0.333-0.313,0.674-0.414,1.02l-1.879,0.268l-0.055,2.39l1.924,0.288c0.115,0.414,0.277,0.817,0.488,1.195l-1.121,1.487
			l1.657,1.729l1.552-1.154c0.389,0.224,0.787,0.391,1.203,0.503l0.258,1.837l2.391,0.051l0.287-1.924
			c0.41-0.121,0.804-0.285,1.177-0.5l1.506,1.138l1.726-1.659l-1.183-1.597c0.197-0.369,0.356-0.756,0.459-1.144l1.909-0.271
			l0.051-2.391l-2.006-0.299c-0.114-0.384-0.27-0.754-0.469-1.104L15.037,166.983z M12.013,172.951
			c-0.987,1.558-3.058,2.021-4.612,1.026c-1.56-0.99-2.021-3.052-1.031-4.615c0.99-1.555,3.056-2.015,4.612-1.023
			C12.539,169.328,13,171.392,12.013,172.951"/>
	</g>
	<g>
		<path fill="#2196F3" d="M14.226,202.031l-1.934-1.413l-1.404,1.487c-0.379-0.13-0.769-0.218-1.154-0.257l-0.612-1.879
			l-2.364,0.366l0.061,2.022c-0.412,0.2-0.793,0.448-1.146,0.741l-1.755-0.829l-1.358,1.969l1.479,1.317
			c-0.114,0.357-0.192,0.72-0.231,1.075L2,207.221l0.364,2.36l1.943-0.048c0.186,0.387,0.416,0.756,0.69,1.096l-0.848,1.657
			l1.934,1.414l1.328-1.404c0.42,0.148,0.843,0.248,1.272,0.284l0.572,1.767l2.364-0.366l-0.051-1.944
			c0.381-0.19,0.739-0.42,1.069-0.695l1.681,0.856l1.411-1.933l-1.441-1.368c0.131-0.397,0.221-0.804,0.256-1.205l1.831-0.598
			l-0.364-2.364l-2.027,0.057c-0.18-0.357-0.396-0.696-0.652-1.005L14.226,202.031z M12.281,208.433
			c-0.703,1.707-2.66,2.52-4.364,1.813c-1.708-0.705-2.52-2.657-1.816-4.366c0.703-1.704,2.66-2.515,4.363-1.81
			C12.171,204.774,12.984,206.726,12.281,208.433"/>
	</g>
	<g>
		<path fill="#2196F3" d="M13.257,237.234l-2.146-1.056l-1.125,1.707c-0.396-0.063-0.793-0.079-1.182-0.055l-0.93-1.739
			l-2.265,0.771l0.409,1.982c-0.369,0.266-0.702,0.579-1,0.932l-1.871-0.517l-0.995,2.178l1.685,1.038
			c-0.052,0.376-0.066,0.742-0.041,1.101l-1.676,0.896l0.768,2.263l1.904-0.387c0.252,0.35,0.543,0.674,0.872,0.956l-0.547,1.783
			l2.149,1.055l1.063-1.613c0.44,0.076,0.872,0.1,1.304,0.063l0.869,1.637l2.264-0.771l-0.389-1.903
			c0.344-0.257,0.656-0.544,0.934-0.871l1.805,0.553l1.055-2.148l-1.656-1.096c0.059-0.418,0.076-0.832,0.041-1.232l1.701-0.905
			l-0.771-2.266l-1.987,0.405c-0.236-0.32-0.511-0.614-0.814-0.877L13.257,237.234z M12.456,243.877
			c-0.396,1.8-2.182,2.941-3.982,2.542c-1.807-0.397-2.942-2.179-2.547-3.983c0.396-1.8,2.182-2.939,3.982-2.539
			C11.711,240.29,12.851,242.072,12.456,243.877"/>
	</g>
	<g>
		<path fill="#2196F3" d="M12.168,272.615l-2.299-0.666l-0.812,1.877c-0.401,0.009-0.793,0.06-1.172,0.152l-1.219-1.555
			l-2.096,1.152l0.748,1.883c-0.319,0.326-0.594,0.69-0.823,1.089l-1.935-0.182l-0.6,2.316l1.838,0.729
			c0.015,0.378,0.065,0.742,0.152,1.09l-1.495,1.174l1.147,2.094l1.809-0.711c0.309,0.302,0.652,0.569,1.023,0.792l-0.229,1.849
			l2.299,0.668l0.769-1.773c0.446-0.003,0.877-0.058,1.293-0.166l1.141,1.461l2.097-1.15l-0.713-1.812
			c0.293-0.312,0.551-0.649,0.768-1.02l1.874,0.231l0.666-2.299l-1.822-0.793c-0.015-0.421-0.069-0.832-0.173-1.22l1.518-1.189
			l-1.15-2.098l-1.889,0.745c-0.291-0.272-0.608-0.517-0.955-0.72L12.168,272.615z M12.531,279.296
			c-0.078,1.845-1.638,3.277-3.481,3.195c-1.847-0.075-3.277-1.634-3.201-3.479c0.08-1.842,1.64-3.275,3.484-3.193
			C11.175,275.897,12.608,277.453,12.531,279.296"/>
	</g>
	<g>
		<path fill="#2196F3" d="M10.986,308.198l-2.378-0.257l-0.475,1.988c-0.395,0.076-0.772,0.194-1.127,0.354l-1.47-1.319l-1.866,1.5
			l1.064,1.724c-0.258,0.376-0.463,0.785-0.621,1.217l-1.936,0.154l-0.188,2.387l1.938,0.401c0.078,0.369,0.191,0.719,0.338,1.046
			l-1.27,1.414l1.497,1.864l1.657-1.017c0.355,0.243,0.738,0.449,1.146,0.603l0.096,1.86l2.381,0.257l0.447-1.879
			c0.438-0.079,0.854-0.206,1.244-0.39l1.377,1.242l1.865-1.498l-1.017-1.659c0.235-0.354,0.43-0.733,0.577-1.137l1.887-0.1
			l0.255-2.379l-1.931-0.465c-0.088-0.409-0.215-0.808-0.385-1.171l1.289-1.434l-1.498-1.864l-1.729,1.061
			c-0.333-0.22-0.691-0.402-1.066-0.542L10.986,308.198z M12.505,314.715c0.245,1.828-1.044,3.512-2.873,3.752
			c-1.834,0.242-3.513-1.041-3.758-2.872c-0.24-1.828,1.047-3.51,2.876-3.752C10.58,311.601,12.261,312.884,12.505,314.715"/>
	</g>
	<g>
		<path fill="#607D8B" d="M33.966,49.108l-0.521-3.549l-3.065,0.059c-0.262-0.547-0.578-1.049-0.939-1.506l1.365-2.628l-2.877-2.145
			l-2.104,2.189c-0.645-0.229-1.314-0.375-1.998-0.44l-0.958-2.75l-3.535,0.621l0.146,2.965c-0.504,0.254-0.969,0.552-1.393,0.886
			l-2.527-1.311l-2.144,2.877l2.097,2.021c-0.221,0.605-0.375,1.243-0.444,1.89l-2.667,0.839l0.521,3.553l2.896-0.054
			c0.281,0.604,0.624,1.161,1.033,1.661l-1.284,2.468l2.876,2.141l2.023-2.099c0.605,0.206,1.23,0.348,1.873,0.413l0.85,2.699
			l3.55-0.522l-0.052-2.983c0.563-0.278,1.096-0.608,1.559-0.995l2.566,1.331l2.144-2.876l-2.188-2.111
			c0.193-0.567,0.324-1.154,0.387-1.753L33.966,49.108z M25.072,53.763c-2.563,1.043-5.491-0.188-6.526-2.758
			c-1.041-2.569,0.192-5.491,2.758-6.535c2.563-1.041,5.488,0.197,6.524,2.76C28.871,49.798,27.638,52.719,25.072,53.763"/>
	</g>
	<g>
		<path fill="#607D8B" d="M33.81,86.982l0.104-3.585l-3.029-0.477c-0.164-0.581-0.388-1.131-0.666-1.646l1.801-2.351l-2.459-2.611
			l-2.453,1.79c-0.594-0.337-1.229-0.597-1.889-0.78l-0.468-2.875l-3.588-0.002l-0.371,2.945c-0.542,0.162-1.052,0.375-1.524,0.63
			l-2.262-1.73l-2.611,2.461l1.711,2.354c-0.319,0.56-0.584,1.159-0.766,1.784l-2.771,0.364l-0.104,3.589l2.864,0.449
			c0.172,0.646,0.412,1.252,0.729,1.816l-1.694,2.206l2.46,2.609l2.357-1.715c0.56,0.308,1.151,0.556,1.772,0.73l0.368,2.808
			l3.586,0.102l0.466-2.948c0.604-0.178,1.185-0.408,1.708-0.708l2.299,1.754l2.608-2.46l-1.79-2.457
			c0.291-0.524,0.521-1.083,0.686-1.661L33.81,86.982z M24.242,90.023c-2.707,0.581-5.377-1.143-5.95-3.85
			c-0.578-2.711,1.145-5.375,3.852-5.958c2.705-0.578,5.371,1.147,5.947,3.852C28.673,86.776,26.95,89.439,24.242,90.023"/>
	</g>
	<g>
		<path fill="#607D8B" d="M33.33,124.799l0.726-3.51l-2.901-0.996c-0.06-0.604-0.185-1.183-0.37-1.737l2.184-2.004l-1.97-2.995
			l-2.728,1.337c-0.525-0.438-1.106-0.804-1.726-1.098l0.039-2.911l-3.532-0.626l-0.877,2.835c-0.561,0.067-1.102,0.186-1.611,0.355
			l-1.928-2.097l-2.998,1.969l1.277,2.618c-0.414,0.493-0.777,1.041-1.063,1.625l-2.793-0.125l-0.728,3.52l2.742,0.938
			c0.056,0.663,0.188,1.304,0.403,1.912l-2.051,1.882l1.969,2.996l2.621-1.279c0.496,0.399,1.037,0.746,1.617,1.025l-0.125,2.827
			l3.514,0.725l0.972-2.819c0.626-0.071,1.239-0.201,1.806-0.404l1.957,2.131l2.998-1.973l-1.336-2.73
			c0.376-0.466,0.699-0.974,0.963-1.516L33.33,124.799z M23.382,126.133c-2.769,0.102-5.097-2.057-5.191-4.824
			c-0.1-2.771,2.06-5.092,4.826-5.199c2.766-0.099,5.09,2.063,5.188,4.827C28.306,123.707,26.147,126.029,23.382,126.133"/>
	</g>
	<g>
		<path fill="#607D8B" d="M32.541,162.508l1.323-3.334l-2.684-1.484c0.045-0.601,0.022-1.196-0.063-1.774l2.497-1.591l-1.419-3.296
			l-2.919,0.845c-0.442-0.521-0.95-0.981-1.509-1.379l0.545-2.861l-3.37-1.232l-1.356,2.645c-0.564-0.034-1.115-0.009-1.646,0.07
			l-1.535-2.4l-3.295,1.419l0.804,2.801c-0.494,0.415-0.944,0.89-1.33,1.414l-2.729-0.606l-1.324,3.337l2.536,1.402
			c-0.058,0.663-0.041,1.317,0.065,1.955l-2.349,1.495l1.42,3.292l2.802-0.807c0.42,0.481,0.891,0.917,1.416,1.295l-0.615,2.762
			l3.336,1.323l1.447-2.609c0.629,0.039,1.254,0.02,1.848-0.082l1.558,2.436l3.294-1.42l-0.841-2.923
			c0.453-0.395,0.858-0.838,1.212-1.326L32.541,162.508z M22.513,162.094c-2.742-0.381-4.662-2.912-4.274-5.654
			c0.382-2.745,2.913-4.656,5.655-4.278c2.74,0.381,4.654,2.913,4.272,5.652C27.785,160.559,25.255,162.472,22.513,162.094"/>
	</g>
	<g>
		<path fill="#607D8B" d="M31.47,200.051l1.881-3.053l-2.385-1.927c0.149-0.587,0.229-1.174,0.248-1.758l2.733-1.137l-0.825-3.49
			l-3.02,0.324c-0.346-0.589-0.767-1.131-1.246-1.622l1.033-2.722l-3.106-1.799l-1.793,2.364c-0.55-0.127-1.099-0.2-1.636-0.214
			l-1.094-2.63l-3.492,0.824l0.307,2.896c-0.559,0.324-1.086,0.711-1.555,1.162l-2.584-1.072l-1.885,3.06l2.256,1.818
			c-0.174,0.646-0.271,1.292-0.275,1.938l-2.573,1.063l0.828,3.489l2.897-0.308c0.332,0.548,0.721,1.059,1.17,1.521l-1.084,2.615
			l3.057,1.879l1.876-2.318c0.614,0.149,1.233,0.236,1.835,0.239l1.112,2.672l3.489-0.826l-0.319-3.023
			c0.514-0.312,0.989-0.678,1.423-1.095L31.47,200.051z M21.663,197.902c-2.634-0.849-4.085-3.676-3.227-6.308
			c0.854-2.639,3.677-4.083,6.313-3.233c2.633,0.851,4.078,3.679,3.225,6.309C27.122,197.307,24.3,198.751,21.663,197.902"/>
	</g>
	<g>
		<path fill="#607D8B" d="M30.144,237.386l2.384-2.679l-2.015-2.313c0.25-0.55,0.432-1.114,0.549-1.688l2.892-0.644l-0.207-3.583
			l-3.03-0.205c-0.238-0.641-0.557-1.247-0.945-1.812l1.49-2.502l-2.746-2.312l-2.179,2.021c-0.519-0.224-1.047-0.391-1.573-0.496
			l-0.621-2.782l-3.58,0.209l-0.203,2.903c-0.605,0.223-1.192,0.513-1.732,0.874l-2.357-1.505l-2.387,2.687l1.903,2.184
			c-0.282,0.604-0.487,1.226-0.606,1.859l-2.718,0.604l0.208,3.58l2.91,0.2c0.229,0.596,0.521,1.166,0.887,1.699l-1.521,2.387
			l2.682,2.384l2.251-1.958c0.577,0.255,1.173,0.445,1.765,0.554l0.631,2.824l3.582-0.21l0.209-3.032
			c0.56-0.214,1.093-0.493,1.593-0.832L30.144,237.386z M20.862,233.566c-2.447-1.292-3.387-4.327-2.083-6.772
			c1.299-2.445,4.331-3.381,6.778-2.089c2.444,1.296,3.377,4.331,2.08,6.774C26.341,233.927,23.31,234.861,20.862,233.566"/>
	</g>
	<g>
		<path fill="#607D8B" d="M28.607,274.472l2.813-2.227l-1.581-2.627c0.34-0.499,0.617-1.022,0.832-1.567l2.959-0.13l0.42-3.563
			l-2.949-0.729c-0.123-0.675-0.334-1.326-0.616-1.949l1.901-2.206l-2.305-2.751l-2.494,1.607c-0.472-0.308-0.963-0.563-1.464-0.762
			l-0.128-2.844l-3.563-0.42l-0.705,2.826c-0.633,0.112-1.264,0.299-1.857,0.562l-2.061-1.89l-2.817,2.229l1.497,2.479
			c-0.383,0.547-0.693,1.123-0.921,1.727l-2.782,0.121l-0.415,3.563l2.83,0.701c0.123,0.626,0.313,1.238,0.578,1.825l-1.913,2.088
			l2.227,2.813l2.559-1.537c0.525,0.35,1.076,0.643,1.641,0.852l0.131,2.89l3.563,0.418l0.733-2.951
			c0.588-0.115,1.162-0.296,1.711-0.541L28.607,274.472z M20.13,269.098c-2.187-1.701-2.584-4.854-0.875-7.033
			c1.703-2.184,4.852-2.576,7.037-0.878c2.184,1.699,2.573,4.85,0.872,7.03C25.464,270.404,22.313,270.796,20.13,269.098"/>
	</g>
	<g>
		<path fill="#607D8B" d="M26.906,311.273l3.155-1.703l-1.103-2.86c0.423-0.433,0.787-0.899,1.093-1.399l2.938,0.384l1.03-3.436
			l-2.777-1.229c-0.004-0.686-0.098-1.365-0.27-2.027l2.258-1.841l-1.793-3.11l-2.735,1.15c-0.412-0.387-0.851-0.723-1.31-1.005
			l0.369-2.823l-3.438-1.029l-1.184,2.66c-0.646,0-1.297,0.072-1.928,0.229l-1.701-2.217l-3.162,1.704l1.043,2.702
			c-0.473,0.474-0.879,0.983-1.207,1.54l-2.76-0.363l-1.028,3.436l2.666,1.187c0.011,0.637,0.093,1.273,0.251,1.897l-2.246,1.725
			L14.776,308l2.785-1.069c0.455,0.435,0.947,0.82,1.468,1.122l-0.373,2.869l3.437,1.029l1.234-2.778
			c0.6-0.012,1.196-0.09,1.781-0.236L26.906,311.273z M19.491,304.508c-1.857-2.055-1.701-5.229,0.357-7.078
			c2.059-1.856,5.227-1.695,7.084,0.357c1.854,2.052,1.692,5.226-0.361,7.075C24.515,306.723,21.347,306.562,19.491,304.508"/>
	</g>
	<rect y="0" fill="#607D8B" fill-opacity="0" width="36" height="324"/>
</g>
</svg>
